<svg aria-hidden="true" style="position: absolute; width: 0; height: 0; overflow: hidden;" version="1.1" xmlns="http://www.w3.org/2000/svg" xmlns:xlink="http://www.w3.org/1999/xlink">
<defs>
<symbol id="icon-slash" viewBox="0 0 24 24">
<path d="M23 12c0-3.037-1.232-5.789-3.222-7.778s-4.741-3.222-7.778-3.222-5.789 1.232-7.778 3.222-3.222 4.741-3.222 7.778 1.232 5.789 3.222 7.778 4.741 3.222 7.778 3.222 5.789-1.232 7.778-3.222 3.222-4.741 3.222-7.778zM19.032 17.618l-12.65-12.65c1.54-1.232 3.493-1.968 5.618-1.968 2.486 0 4.734 1.006 6.364 2.636s2.636 3.878 2.636 6.364c0 2.125-0.736 4.078-1.968 5.618zM4.968 6.382l12.65 12.65c-1.54 1.232-3.493 1.968-5.618 1.968-2.486 0-4.734-1.006-6.364-2.636s-2.636-3.878-2.636-6.364c0-2.125 0.736-4.078 1.968-5.618z"></path>
</symbol>
<symbol id="icon-x" viewBox="0 0 24 24">
<path d="M5.293 6.707l5.293 5.293-5.293 5.293c-0.391 0.391-0.391 1.024 0 1.414s1.024 0.391 1.414 0l5.293-5.293 5.293 5.293c0.391 0.391 1.024 0.391 1.414 0s0.391-1.024 0-1.414l-5.293-5.293 5.293-5.293c0.391-0.391 0.391-1.024 0-1.414s-1.024-0.391-1.414 0l-5.293 5.293-5.293-5.293c-0.391-0.391-1.024-0.391-1.414 0s-0.391 1.024 0 1.414z"></path>
</symbol>
</defs>
</svg>
